<svg width="10" height="10" viewBox="0 0 10 10" fill="none" xmlns="http://www.w3.org/2000/svg">
<g clip-path="url(#clip0_497_102)">
<path d="M7.98471 2.03346L8.41621 2.03346C8.41621 1.79516 8.22304 1.60198 7.98474 1.60196L7.98471 2.03346ZM7.55321 7.07599C7.55321 7.3143 7.7464 7.50749 7.98471 7.50749C8.22302 7.50749 8.41621 7.3143 8.41621 7.07599L7.98471 7.07599L7.55321 7.07599ZM2.96781 1.60162C2.7295 1.6016 2.5363 1.79478 2.53628 2.03309C2.53627 2.2714 2.72944 2.4646 2.96775 2.46462L2.96778 2.03312L2.96781 1.60162ZM5.54378 4.47439L5.23866 4.16927L5.23755 4.17039L5.54378 4.47439ZM7.98471 2.03346L7.55321 2.03346L7.55321 7.07599L7.98471 7.07599L8.41621 7.07599L8.41621 2.03346L7.98471 2.03346ZM7.98471 2.03346L7.98474 1.60196L2.96781 1.60162L2.96778 2.03312L2.96775 2.46462L7.98468 2.46496L7.98471 2.03346ZM2.10478 7.93864L2.41101 8.24264L5.85001 4.77838L5.54378 4.47439L5.23755 4.17039L1.79855 7.63464L2.10478 7.93864ZM5.54378 4.47439L5.8489 4.7795L8.28982 2.33858L7.98471 2.03346L7.67959 1.72834L5.23866 4.16927L5.54378 4.47439Z" fill="#888888"/>
</g>
<defs>
<clipPath id="clip0_497_102">
<rect width="10" height="10" fill="white"/>
</clipPath>
</defs>
</svg>
