<svg width="24" height="24" viewBox="0 0 24 24" fill="none" xmlns="http://www.w3.org/2000/svg">
<circle cx="12" cy="12" r="12" fill="#202020"/>
<g clip-path="url(#clip0_497_93)">
<path d="M15.3137 9.17196L15.8137 9.17196C15.8137 8.89582 15.5898 8.67196 15.3137 8.67196L15.3137 9.17196ZM14.8137 13.4146C14.8137 13.6907 15.0376 13.9146 15.3137 13.9146C15.5898 13.9146 15.8137 13.6907 15.8137 13.4146L15.3137 13.4146L14.8137 13.4146ZM11.0711 8.67196C10.7949 8.67196 10.5711 8.89582 10.5711 9.17196C10.5711 9.4481 10.7949 9.67196 11.0711 9.67196L11.0711 9.17196L11.0711 8.67196ZM12.4853 12.0004L12.1317 11.6468L12.131 11.6476L12.4853 12.0004ZM15.3137 9.17196L14.8137 9.17196L14.8137 13.4146L15.3137 13.4146L15.8137 13.4146L15.8137 9.17196L15.3137 9.17196ZM15.3137 9.17196L15.3137 8.67196L11.0711 8.67196L11.0711 9.17196L11.0711 9.67196L15.3137 9.67196L15.3137 9.17196ZM9 15.5004L9.3543 15.8532L12.8396 12.3532L12.4853 12.0004L12.131 11.6476L8.6457 15.1475L9 15.5004ZM12.4853 12.0004L12.8388 12.3539L15.6673 9.52552L15.3137 9.17196L14.9601 8.81841L12.1317 11.6468L12.4853 12.0004Z" fill="white"/>
</g>
<defs>
<clipPath id="clip0_497_93">
<rect width="12" height="12" fill="white" transform="translate(12.4854 3.51479) rotate(45)"/>
</clipPath>
</defs>
</svg>
