<svg width="62" height="62" viewBox="0 0 62 62" fill="none" xmlns="http://www.w3.org/2000/svg">
<circle cx="31" cy="31" r="31" fill="#202020"/>
<path d="M39.6573 32.2091L40.3645 32.9162C40.755 32.5257 40.755 31.8925 40.3645 31.502L39.6573 32.2091ZM32.9502 37.502C32.5597 37.8925 32.5597 38.5257 32.9502 38.9162C33.3408 39.3067 33.9739 39.3067 34.3645 38.9162L33.6574 38.2091L32.9502 37.502ZM34.3645 25.502C33.9739 25.1115 33.3408 25.1115 32.9502 25.502C32.5597 25.8925 32.5597 26.5257 32.9502 26.9162L33.6574 26.2091L34.3645 25.502ZM39.6573 32.2091L38.9502 31.502L32.9502 37.502L33.6574 38.2091L34.3645 38.9162L40.3645 32.9162L39.6573 32.2091ZM39.6573 32.2091L40.3645 31.502L34.3645 25.502L33.6574 26.2091L32.9502 26.9162L38.9502 32.9162L39.6573 32.2091ZM23.6574 32.2091V33.2091H31.6574V32.2091V31.2091H23.6574V32.2091ZM31.6574 32.2091V33.2091H39.6573V32.2091V31.2091H31.6574V32.2091Z" fill="white"/>
</svg>
