<svg width="24" height="24" viewBox="0 0 24 24" fill="none" xmlns="http://www.w3.org/2000/svg">
<circle cx="12" cy="12" r="12" fill="#202020"/>
<path d="M16.9211 12.4678L17.3336 12.8803C17.5614 12.6524 17.5614 12.2831 17.3336 12.0553L16.9211 12.4678ZM13.0087 15.5553C12.7809 15.7831 12.7809 16.1524 13.0087 16.3802C13.2365 16.6081 13.6058 16.6081 13.8336 16.3802L13.4211 15.9678L13.0087 15.5553ZM13.8336 8.55529C13.6058 8.32749 13.2365 8.32749 13.0087 8.55529C12.7809 8.7831 12.7809 9.15245 13.0087 9.38025L13.4211 8.96777L13.8336 8.55529ZM16.9211 12.4678L16.5087 12.0553L13.0087 15.5553L13.4211 15.9678L13.8336 16.3802L17.3336 12.8803L16.9211 12.4678ZM16.9211 12.4678L17.3336 12.0553L13.8336 8.55529L13.4211 8.96777L13.0087 9.38025L16.5087 12.8803L16.9211 12.4678ZM7.58782 12.4678V13.0511H12.2545V12.4678V11.8844H7.58782V12.4678ZM12.2545 12.4678V13.0511H16.9211V12.4678V11.8844H12.2545V12.4678Z" fill="white"/>
</svg>
