<svg width="24" height="24" viewBox="0 0 24 24" fill="none" xmlns="http://www.w3.org/2000/svg">
<path d="M8.55586 3.68017C10.7611 2.76671 13.2389 2.76671 15.4442 3.68017C17.6494 4.5936 19.4015 6.34568 20.3149 8.55093C21.2284 10.7562 21.2284 13.234 20.3149 15.4392C19.4015 17.6445 17.6494 19.3965 15.4442 20.31C13.2389 21.2234 10.7611 21.2234 8.55586 20.31C6.35061 19.3965 4.59853 17.6445 3.6851 15.4392C2.77163 13.234 2.77163 10.7562 3.6851 8.55093C4.59853 6.34568 6.35061 4.5936 8.55586 3.68017Z" stroke="#202020" stroke-width="1.2" stroke-linecap="round" stroke-linejoin="round"/>
<path d="M15.1032 6.94459C16.443 10.1789 16.443 13.813 15.1032 17.0474C14.497 18.511 13.639 19.8384 12.5814 20.9774C12.1946 21.0024 11.8065 21.0025 11.4197 20.9775C10.3617 19.8383 9.50338 18.5105 8.897 17.0466C7.55728 13.8122 7.55728 10.1781 8.897 6.94371C9.50299 5.48073 10.3606 4.15374 11.4176 3.01505C11.8052 2.98991 12.1941 2.98988 12.5818 3.01498C13.6391 4.1539 14.4971 5.48121 15.1032 6.94459Z" stroke="#202020" stroke-width="1.2" stroke-linecap="round" stroke-linejoin="round"/>
<path d="M3.48755 14.9175H20.5122" stroke="#202020" stroke-width="1.2" stroke-linecap="round" stroke-linejoin="round"/>
<path d="M3.60583 8.74788H20.3934" stroke="#202020" stroke-width="1.2" stroke-linecap="round" stroke-linejoin="round"/>
</svg>
