<svg width="32" height="32" viewBox="0 0 32 32" fill="none" xmlns="http://www.w3.org/2000/svg">
<path fill-rule="evenodd" clip-rule="evenodd" d="M7.8946 26.604C6.48126 26.4307 5.6626 25.7613 5.6626 24.4973C5.6626 21.8747 8.39727 21.3427 15.3879 21.328H17.2693C24.2599 21.3413 26.9959 21.8747 26.9959 24.4973C26.9959 25.7613 26.1759 26.4307 24.7626 26.604C23.8399 26.7187 23.2679 26.6907 20.3693 26.464C18.6586 26.3293 17.5453 26.2693 16.3293 26.2693C15.1133 26.2693 13.9986 26.3293 12.2893 26.464C9.3906 26.6907 8.81726 26.7173 7.8946 26.604ZM15.3906 22.6613C9.49726 22.6733 6.99593 23.1613 6.99593 24.4973C6.99593 24.9787 7.2426 25.18 8.0586 25.2813C8.84793 25.3787 9.41993 25.3507 12.1853 25.1347C13.9266 24.9973 15.0693 24.936 16.3293 24.936C17.5879 24.936 18.7306 24.9973 20.4733 25.1347C23.2373 25.3507 23.8106 25.3787 24.5999 25.2813C25.4146 25.18 25.6626 24.9787 25.6626 24.4973C25.6626 23.1613 23.1599 22.6733 17.2666 22.6613H15.3906ZM24.4173 13.092C26.0866 12.716 26.9999 11.768 26.9999 10.1507C26.9999 6.484 22.3293 4 16.3333 4C10.3373 4 5.6666 6.484 5.6666 10.1493C5.6666 11.7667 6.57993 12.7147 8.24926 13.0933C9.4106 13.356 10.4599 13.3733 13.6293 13.2827C14.5303 13.2524 15.4317 13.2359 16.3333 13.2333C17.1199 13.2333 17.8053 13.2467 19.0373 13.2827C22.2066 13.3733 23.2559 13.356 24.4173 13.0933M16.3333 5.332C21.6906 5.332 25.6666 7.448 25.6666 10.1493C25.6666 11.0867 25.2279 11.5413 24.1226 11.792C23.1199 12.0187 22.1039 12.036 19.0759 11.9493C18.162 11.9189 17.2477 11.9024 16.3333 11.9C15.5306 11.9 14.8359 11.9133 13.5906 11.9493C10.5626 12.036 9.5466 12.02 8.54393 11.792C7.43726 11.5413 6.99993 11.0867 6.99993 10.1493C6.99993 7.448 10.9759 5.332 16.3333 5.332Z" fill="black"/>
<path d="M6.33634 16.2413C6.18357 16.3304 6.00166 16.3552 5.83063 16.3102C5.6596 16.2652 5.51345 16.1541 5.42434 16.0013C5.33522 15.8486 5.31045 15.6666 5.35545 15.4956C5.40046 15.3246 5.51157 15.1784 5.66434 15.0893C6.50543 14.5935 7.46397 14.332 8.44033 14.332C9.08833 14.332 9.46167 14.44 10.0577 14.7213L10.0737 14.7293C10.519 14.9387 10.7257 14.9987 11.167 14.9987C11.603 14.9987 11.7883 14.9427 12.1857 14.7387L12.2017 14.7307C12.7617 14.444 13.1283 14.332 13.7817 14.332C14.4443 14.332 14.811 14.4467 15.3723 14.7413C15.7617 14.9467 15.9297 14.9987 16.3337 14.9987C16.7377 14.9987 16.9043 14.9453 17.287 14.7453L17.2923 14.7413C17.8537 14.448 18.2217 14.332 18.8857 14.332C19.5417 14.332 19.9097 14.444 20.4803 14.7333L20.487 14.7373C20.8923 14.9427 21.0737 14.9987 21.5003 14.9987C21.927 14.9987 22.1137 14.9427 22.5243 14.736L22.5323 14.732C23.1083 14.4427 23.4763 14.332 24.131 14.332C25.1052 14.3329 26.0554 14.5818 26.9817 15.0787C27.1276 15.1672 27.234 15.3083 27.2789 15.473C27.3239 15.6377 27.304 15.8133 27.2233 15.9637C27.1426 16.1141 27.0073 16.2279 26.8453 16.2815C26.6833 16.3351 26.5068 16.3246 26.3523 16.252C25.6181 15.8609 24.8777 15.6653 24.131 15.6653C23.7177 15.6653 23.5363 15.72 23.131 15.924L23.1217 15.928C22.5417 16.22 22.1683 16.332 21.5003 16.332C20.8323 16.332 20.4603 16.2187 19.8843 15.9267L19.8763 15.9227C19.4763 15.72 19.299 15.6653 18.8857 15.6653C18.4723 15.6653 18.299 15.7187 17.9137 15.9227L17.907 15.9253C17.351 16.2187 16.987 16.332 16.3337 16.332C15.6803 16.332 15.3163 16.2187 14.7577 15.9253L14.7523 15.9227C14.3657 15.7187 14.195 15.6653 13.7817 15.6653C13.3723 15.6653 13.1977 15.7187 12.8097 15.9173L12.7937 15.9253C12.223 16.2187 11.8443 16.332 11.167 16.332C10.495 16.332 10.1123 16.2213 9.50433 15.9347L9.48834 15.9267C9.055 15.7227 8.85767 15.6653 8.44033 15.6653C7.69367 15.6653 6.99767 15.856 6.33634 16.2413ZM7.00034 19.6653C6.82352 19.6653 6.65395 19.5951 6.52893 19.4701C6.40391 19.345 6.33367 19.1755 6.33367 18.9987C6.33367 18.8218 6.40391 18.6523 6.52893 18.5272C6.65395 18.4022 6.82352 18.332 7.00034 18.332H25.667C25.8438 18.332 26.0134 18.4022 26.1384 18.5272C26.2634 18.6523 26.3337 18.8218 26.3337 18.9987C26.3337 19.1755 26.2634 19.345 26.1384 19.4701C26.0134 19.5951 25.8438 19.6653 25.667 19.6653H7.00034ZM11.1337 9.33199C11.1337 9.54416 11.0494 9.74764 10.8994 9.89767C10.7493 10.0477 10.5458 10.132 10.3337 10.132C10.1215 10.132 9.91801 10.0477 9.76798 9.89767C9.61795 9.74764 9.53367 9.54416 9.53367 9.33199C9.53367 9.11981 9.61795 8.91633 9.76798 8.7663C9.91801 8.61627 10.1215 8.53199 10.3337 8.53199C10.5458 8.53199 10.7493 8.61627 10.8994 8.7663C11.0494 8.91633 11.1337 9.11981 11.1337 9.33199ZM14.467 7.99865C14.467 8.21083 14.3827 8.41431 14.2327 8.56434C14.0827 8.71437 13.8792 8.79865 13.667 8.79865C13.4548 8.79865 13.2513 8.71437 13.1013 8.56434C12.9513 8.41431 12.867 8.21083 12.867 7.99865C12.867 7.78648 12.9513 7.583 13.1013 7.43297C13.2513 7.28294 13.4548 7.19865 13.667 7.19865C13.8792 7.19865 14.0827 7.28294 14.2327 7.43297C14.3827 7.583 14.467 7.78648 14.467 7.99865ZM17.1337 9.99865C17.1337 10.2108 17.0494 10.4143 16.8994 10.5643C16.7493 10.7144 16.5458 10.7987 16.3337 10.7987C16.1215 10.7987 15.918 10.7144 15.768 10.5643C15.618 10.4143 15.5337 10.2108 15.5337 9.99865C15.5337 9.78648 15.618 9.583 15.768 9.43297C15.918 9.28294 16.1215 9.19865 16.3337 9.19865C16.5458 9.19865 16.7493 9.28294 16.8994 9.43297C17.0494 9.583 17.1337 9.78648 17.1337 9.99865ZM19.8003 7.99865C19.8003 8.21083 19.716 8.41431 19.566 8.56434C19.416 8.71437 19.2125 8.79865 19.0003 8.79865C18.7882 8.79865 18.5847 8.71437 18.4346 8.56434C18.2846 8.41431 18.2003 8.21083 18.2003 7.99865C18.2003 7.78648 18.2846 7.583 18.4346 7.43297C18.5847 7.28294 18.7882 7.19865 19.0003 7.19865C19.2125 7.19865 19.416 7.28294 19.566 7.43297C19.716 7.583 19.8003 7.78648 19.8003 7.99865ZM23.1337 9.33199C23.1337 9.54416 23.0494 9.74764 22.8994 9.89767C22.7493 10.0477 22.5458 10.132 22.3337 10.132C22.1215 10.132 21.918 10.0477 21.768 9.89767C21.618 9.74764 21.5337 9.54416 21.5337 9.33199C21.5337 9.11981 21.618 8.91633 21.768 8.7663C21.918 8.61627 22.1215 8.53199 22.3337 8.53199C22.5458 8.53199 22.7493 8.61627 22.8994 8.7663C23.0494 8.91633 23.1337 9.11981 23.1337 9.33199Z" fill="black"/>
</svg>
