<svg width="76" height="76" viewBox="0 0 76 76" fill="none" xmlns="http://www.w3.org/2000/svg">
<path d="M37.9873 7.125C56.3416 7.125 71.25 18.9461 71.25 33.5176C71.2497 48.0888 56.3667 59.8964 38.0127 59.8965C36.0025 59.8965 34.0168 59.7588 32.1064 59.4824C30.1703 60.8397 19.1083 68.6647 18.0596 68.8154C18.0449 68.8208 17.6166 68.9745 17.2607 68.7646C16.9012 68.5523 16.9602 67.9931 16.9609 67.9863L20.332 55.8643C10.9679 51.1788 4.75015 42.9259 4.75 33.5049C4.75 18.9334 19.6331 7.12509 37.9873 7.125ZM19.5957 42.6992H19.6084C19.6061 42.6992 19.6038 42.6982 19.6016 42.6982C19.5997 42.6982 19.5976 42.6992 19.5957 42.6992ZM14.6885 25.6152C13.6648 25.6155 12.8164 26.4575 12.8164 27.5C12.8166 28.5423 13.6525 29.3835 14.6885 29.3838H17.6855V40.8525C17.6855 41.8679 18.5434 42.6947 19.6016 42.6982C20.6479 42.6952 21.5186 41.8557 21.5186 40.8525V29.3838H24.5156C25.5392 29.3836 26.3885 28.5424 26.3887 27.5C26.3887 26.4575 25.5518 25.6154 24.5156 25.6152H14.6885ZM30.958 25.6279C29.7095 25.6531 28.7231 26.6076 28.3984 27.5371L23.8164 39.6846C23.2296 41.506 23.7412 42.1716 24.2656 42.4229C24.6527 42.5862 25.0647 42.6738 25.4893 42.6738C26.2883 42.6738 26.9005 42.3478 27.0879 41.8203L28.0361 39.3076H33.8799L34.8291 41.8203C35.0166 42.3476 35.6279 42.6738 36.4268 42.6738C36.8512 42.6738 37.2758 42.5987 37.6504 42.4229C38.1748 42.1967 38.6864 41.506 38.0996 39.6846L33.5176 27.5371C33.2053 26.6076 32.2065 25.6028 30.958 25.6279ZM51.835 25.6152C50.7862 25.6152 49.9122 26.4821 49.9121 27.5498V40.7393C49.9121 43.3046 53.7576 43.2086 53.7578 40.7021V36.4941L54.4189 35.8281L58.9141 41.8203C59.5176 42.6157 60.7559 42.8252 61.5986 42.1973C62.4535 41.5978 62.6069 40.3255 61.9727 39.5088L57.2539 33.2275L61.6484 28.8311C62.3118 28.1519 62.1462 27.071 61.5107 26.4316C60.8342 25.7513 59.7169 25.6995 59.126 26.2939L53.7578 31.6953V27.5498C53.7577 26.4948 52.8835 25.6155 51.835 25.6152ZM41.3086 25.6025C40.2226 25.6027 39.3488 26.4696 39.3486 27.5371V40.6641C39.3486 41.6312 40.1849 42.4226 41.1836 42.4229L47.3398 42.3848C48.351 42.3846 49.1746 41.594 49.1748 40.627C49.1748 39.6598 48.3386 38.8683 47.3398 38.8682H43.2695V27.5371C43.2694 26.482 42.3948 25.6025 41.3086 25.6025ZM32.8682 35.8906H29.0479L30.958 30.4141L32.8682 35.8906Z" fill="#202020"/>
</svg>
