<svg width="70" height="22" viewBox="0 0 70 22" fill="none" xmlns="http://www.w3.org/2000/svg">
<path d="M0.0400001 21.74V0.26H2.59V21.74H0.0400001ZM8.86 21.74L2.83 14.03L8.56 6.83H11.35L5.5 13.85L11.8 21.74H8.86ZM17.9676 22.01C16.5676 22.01 15.4476 21.65 14.6076 20.93C13.7676 20.21 13.3476 19.16 13.3476 17.78C13.3476 15.26 14.8476 13.81 17.8476 13.43L21.8076 12.95V11.57C21.8076 10.45 21.5376 9.7 20.9976 9.32C20.4776 8.94 19.5276 8.75 18.1476 8.75C17.1676 8.75 15.9776 8.89 14.5776 9.17V7.34C15.9976 6.8 17.5176 6.53 19.1376 6.53C22.5976 6.53 24.3276 8 24.3276 10.94V21.74H22.2876L22.0176 20.48H21.8676C20.9476 21.5 19.6476 22.01 17.9676 22.01ZM18.5976 20.03C19.9976 20.03 21.0676 19.69 21.8076 19.01V14.9L18.5076 15.23C17.6276 15.33 16.9876 15.57 16.5876 15.95C16.1876 16.33 15.9876 16.92 15.9876 17.72C15.9876 18.48 16.2176 19.06 16.6776 19.46C17.1576 19.84 17.7976 20.03 18.5976 20.03ZM28.3115 21.74V0.26H30.8615V21.74H28.3115ZM37.1315 21.74L31.1015 14.03L36.8315 6.83H39.6215L33.7715 13.85L40.0715 21.74H37.1315ZM46.2391 22.01C44.8391 22.01 43.7191 21.65 42.8791 20.93C42.0391 20.21 41.6191 19.16 41.6191 17.78C41.6191 15.26 43.1191 13.81 46.1191 13.43L50.0791 12.95V11.57C50.0791 10.45 49.8091 9.7 49.2691 9.32C48.7491 8.94 47.7991 8.75 46.4191 8.75C45.4391 8.75 44.2491 8.89 42.8491 9.17V7.34C44.2691 6.8 45.7891 6.53 47.4091 6.53C50.8691 6.53 52.5991 8 52.5991 10.94V21.74H50.5591L50.2891 20.48H50.1391C49.2191 21.5 47.9191 22.01 46.2391 22.01ZM46.8691 20.03C48.2691 20.03 49.3391 19.69 50.0791 19.01V14.9L46.7791 15.23C45.8991 15.33 45.2591 15.57 44.8591 15.95C44.4591 16.33 44.2591 16.92 44.2591 17.72C44.2591 18.48 44.4891 19.06 44.9491 19.46C45.4291 19.84 46.0691 20.03 46.8691 20.03ZM62.433 22.01C60.293 22.01 58.623 21.36 57.423 20.06C56.243 18.74 55.653 16.92 55.653 14.6V14.09C55.653 11.77 56.273 9.93 57.513 8.57C58.753 7.21 60.403 6.53 62.463 6.53C64.603 6.53 66.273 7.19 67.473 8.51C68.673 9.83 69.273 11.66 69.273 14V14.48C69.273 16.8 68.643 18.64 67.383 20C66.143 21.34 64.493 22.01 62.433 22.01ZM62.493 19.91C63.813 19.91 64.823 19.47 65.523 18.59C66.243 17.69 66.603 16.41 66.603 14.75V13.94C66.603 10.4 65.203 8.63 62.403 8.63C61.103 8.63 60.093 9.08 59.373 9.98C58.653 10.88 58.293 12.16 58.293 13.82V14.66C58.293 18.16 59.693 19.91 62.493 19.91Z" fill="#202020"/>
</svg>
